<svg width="48" height="48" viewBox="0 0 48 48" fill="none" xmlns="http://www.w3.org/2000/svg">
<g clip-path="url(#clip0_1_94)">
<path d="M47.7482 40.4475H47.7482V13.8153V13.8083L47.7483 13.8083C47.8112 11.5551 46.0355 9.67755 43.7822 9.61474L43.7822 9.61474C43.6887 9.6121 43.595 9.61273 43.5014 9.61653L43.4912 9.61695V9.61674H33.9504H33.7004V9.36674V7.55234V7.54585L33.7005 7.54585C33.7616 5.19562 31.9059 3.24083 29.5557 3.17971L47.7482 40.4475ZM47.7482 40.4475L47.7483 40.4539L47.7482 40.4475ZM18.5564 3.17822H18.5563C16.2053 3.17738 14.2987 5.08262 14.2979 7.43369L18.5564 3.17822ZM18.5564 3.17822H29.4435C29.4806 3.17822 29.5179 3.17875 29.5556 3.17971L18.5564 3.17822ZM14.2996 7.55223H14.2995V9.36674V9.61674H14.0495H4.50874H4.49851L4.49852 9.61653C2.24623 9.52437 0.34571 11.2753 0.2534 13.5274L14.2996 7.55223ZM14.2996 7.55223L14.2994 7.54513M14.2996 7.55223L14.2994 7.54513M14.2994 7.54513C14.2984 7.50854 14.2979 7.47143 14.2979 7.43377L14.2994 7.54513ZM0.251801 13.8153H0.251702V40.4475V40.454L0.251617 40.454C0.19056 42.8042 2.04627 44.759 4.39647 44.8201C4.39651 44.8201 4.39655 44.8201 4.39659 44.8201L4.3901 45.07L0.251801 13.8153ZM0.251801 13.8153L0.251602 13.8083M0.251801 13.8153L0.251602 13.8083M0.251602 13.8083C0.248966 13.7147 0.249595 13.6211 0.253397 13.5275L0.251602 13.8083ZM18.4227 5.02314L18.4229 5.02312C18.467 5.02078 18.5117 5.01952 18.5568 5.01963M18.4227 5.02314L31.6124 7.43213C31.6106 6.23604 30.6396 5.26784 29.4435 5.26963V5.01963H29.4433C29.4432 5.01963 29.4432 5.01963 29.4431 5.01963L18.5568 5.01963M18.4227 5.02314C17.0928 5.09512 16.0726 6.22977 16.1408 7.55894V9.36685V9.61685H16.3908H31.6093H31.8593V9.36685V7.55883L18.4227 5.02314ZM18.5568 5.01963H18.5564V5.26963L18.5571 5.01964C18.557 5.01964 18.5569 5.01963 18.5568 5.01963ZM43.625 42.9768L43.6248 42.9768C43.5806 42.9792 43.5358 42.9804 43.4906 42.9803M43.625 42.9768L4.50912 42.9803M43.625 42.9768C44.9549 42.9048 45.9752 41.7702 45.9071 40.441V32.7798V32.3181L45.5204 32.5705C44.9227 32.9606 44.2168 33.1514 43.5039 33.1155L43.5039 33.1152H43.4913H31.6093H31.3593V33.3652V36.7402L43.625 42.9768ZM43.4906 42.9803L43.4913 42.7303V42.9803H43.4906ZM43.4906 42.9803H4.50912M4.50912 42.9803L4.50874 42.7305V42.9803H4.50912ZM2.08987 40.5683C2.08987 40.5683 2.08986 40.5682 2.08986 40.5682L2.33986 40.5678L2.08987 40.5685C2.08987 40.5685 2.08987 40.5684 2.08987 40.5683ZM2.08987 40.5683C2.08975 40.5255 2.09088 40.4831 2.093 40.4411M2.08987 40.5683L2.093 40.4411M2.343 32.7798C2.42454 32.833 2.50794 32.8828 2.593 32.929V32.7798H2.343ZM2.343 32.7798L2.20638 32.9892C2.2514 33.0186 2.29695 33.047 2.343 33.0744V32.7798ZM2.093 40.4411V40.4476H2.343L2.09335 40.4343C2.09323 40.4366 2.09312 40.4389 2.093 40.4411ZM43.625 31.2703L43.6248 31.2703C43.5808 31.2727 43.5363 31.2739 43.4913 31.2738C43.4911 31.2738 43.4908 31.2738 43.4906 31.2738M43.625 31.2703L43.4913 31.0238L43.4906 31.2738M43.625 31.2703C44.9549 31.1983 45.9751 30.0637 45.9069 28.7344V13.8229M43.625 31.2703L45.9069 13.8229M43.4906 31.2738L31.6091 31.2738H31.3591V31.0238V28.507C31.3591 28.2983 31.2396 28.1192 31.0162 27.9803C30.7904 27.8399 30.4863 27.7619 30.2043 27.7619H17.7956C17.5137 27.7619 17.2096 27.8399 16.9837 27.9803C16.7603 28.1192 16.6408 28.2983 16.6408 28.507V31.0238V31.2738H16.3908L4.50912 31.2738M43.4906 31.2738H4.50912M4.50912 31.2738L4.50874 31.024V31.2738M4.50912 31.2738L2.08986 28.8617C2.08986 28.8617 2.08987 28.8618 2.08987 28.8618C2.09194 30.1958 3.1748 31.2756 4.50874 31.2738M4.50912 31.2738C4.50899 31.2738 4.50887 31.2738 4.50874 31.2738M4.50912 31.2738L4.50874 31.2738M4.18829 11.4545L4.18831 11.4545C4.29859 11.4476 4.40943 11.4487 4.51972 11.4582H43.4803C44.7077 11.3533 45.7905 12.2598 45.9018 13.488M4.18829 11.4545L45.9018 13.488M4.18829 11.4545C2.95626 11.5321 2.01978 12.5916 2.093 13.8229V28.7346L4.18829 11.4545ZM45.9018 13.488C45.9119 13.5994 45.9136 13.7114 45.9069 13.8229M45.9018 13.488L45.9069 13.8229M16.6408 36.7402C16.6398 36.7342 16.6388 36.7282 16.6379 36.7222L16.3908 36.7601H16.6408V36.7402ZM17.8041 37.7978H17.7956V38.0478L17.8119 37.7984C17.8093 37.7982 17.8067 37.798 17.8041 37.7978ZM30.1959 37.7978C30.1933 37.798 30.1907 37.7982 30.1881 37.7984L30.2045 38.0478V37.7978H30.1959ZM18.4821 35.7064V35.9564H18.7321H29.268H29.518V35.7064V29.8532V29.6032H29.268H18.7321H18.4821V29.8532V35.7064Z" fill="#F78CB6" stroke="white" stroke-width="0.5" />
</g>
<defs>
<clipPath id="clip0_1_94">
<rect width="48" height="48" fill="white"/>
</clipPath>
</defs>
</svg>
